<svg width="1538" height="1538" viewBox="0 0 1538 1538" fill="none" xmlns="http://www.w3.org/2000/svg">
<path d="M196.934 54.4681C199.029 54.4681 201.124 54.4681 205.314 54.4681C209.504 54.4681 211.599 54.4681 213.694 54.4681C217.884 54.4681 219.979 54.4681 224.169 54.4681C226.264 54.4681 228.359 54.4681 232.549 54.4681C234.645 54.4681 238.835 54.4681 240.93 56.563C243.025 56.563 245.12 56.563 247.215 56.563C249.31 56.563 253.5 58.658 255.595 60.7529C257.69 60.7529 259.785 60.7529 261.88 62.8479C266.07 62.8479 268.165 64.9428 270.26 67.0377C272.355 67.0377 274.45 67.0377 276.545 69.1326C280.735 69.1326 282.83 73.3225 287.02 73.3225C287.02 73.3225 291.21 73.3225 293.306 75.4175C297.496 75.4175 299.591 79.6073 303.781 81.7022C303.781 81.7022 305.876 81.7022 307.971 83.7972L322.636 94.2718C331.016 100.557 339.396 106.841 347.777 113.126C372.917 131.981 395.962 152.93 421.103 171.784C421.103 171.784 425.293 173.879 427.388 173.879C427.388 173.879 427.388 173.879 429.483 173.879H433.673H439.958H444.148C504.904 138.265 571.946 115.221 641.082 104.746C662.032 100.557 685.078 98.4617 708.123 96.3668C729.073 96.3668 752.119 96.3668 775.164 96.3668C840.11 100.557 905.057 111.031 965.813 136.17C1005.62 152.93 1043.33 173.879 1083.13 194.829C1083.13 194.829 1087.32 194.829 1087.32 196.923C1087.32 196.923 1087.32 196.923 1089.42 196.923C1089.42 196.923 1089.42 196.923 1091.52 196.923C1091.52 196.923 1091.51 196.923 1093.61 196.923H1095.7C1095.7 196.923 1095.7 196.923 1097.8 196.923C1097.8 196.923 1097.8 196.923 1099.9 196.923C1099.9 196.923 1101.99 196.923 1104.09 194.829C1104.09 194.829 1106.18 192.734 1108.28 190.639C1154.37 140.36 1200.46 92.1769 1267.5 64.9428C1277.97 60.7529 1288.45 56.5631 1298.92 54.4681C1305.21 54.4681 1311.49 52.3732 1317.78 50.2783C1317.78 50.2783 1317.78 50.2783 1319.87 50.2783C1326.16 50.2783 1332.44 50.2783 1338.73 50.2783H1342.92C1345.01 50.2783 1347.11 50.2783 1349.2 50.2783H1353.39C1355.49 50.2783 1357.58 50.2783 1361.77 50.2783H1365.96C1368.06 50.2783 1372.25 50.2783 1374.35 50.2783C1376.44 50.2783 1376.44 50.2783 1378.54 50.2783C1382.73 50.2783 1386.92 52.3732 1391.11 54.4681C1405.77 58.658 1416.25 67.0377 1426.72 75.4175C1456.05 100.557 1464.43 136.17 1466.53 175.974C1468.62 236.727 1456.05 297.48 1441.39 356.138C1418.34 442.03 1391.11 527.923 1361.77 611.72C1353.39 638.954 1357.58 661.998 1359.68 687.138C1363.87 739.511 1374.35 793.979 1363.87 848.447C1357.58 881.966 1363.87 917.58 1370.15 951.099C1372.25 961.573 1374.35 969.953 1374.35 980.428C1374.35 982.523 1374.35 984.618 1374.35 986.713C1374.35 992.997 1374.35 1001.38 1376.44 1007.66V1016.04C1376.44 1022.33 1376.44 1028.61 1376.44 1034.9C1376.44 1039.09 1376.44 1041.18 1376.44 1045.37C1376.44 1051.66 1376.44 1055.85 1376.44 1062.13C1376.44 1062.13 1376.44 1066.32 1376.44 1068.41C1376.44 1070.51 1376.44 1072.6 1376.44 1074.7C1376.44 1078.89 1376.44 1085.17 1374.35 1089.36C1374.35 1093.55 1374.35 1097.74 1372.25 1101.93C1372.25 1106.12 1370.15 1112.41 1368.06 1116.6C1368.06 1120.79 1365.96 1124.98 1363.87 1129.17C1363.87 1133.36 1361.77 1139.64 1359.68 1143.83C1359.68 1148.02 1357.58 1152.21 1355.49 1156.4C1355.49 1156.4 1355.49 1158.5 1355.49 1160.59C1355.49 1162.69 1355.49 1162.69 1355.49 1164.78C1355.49 1164.78 1349.2 1192.02 1315.68 1238.1C1311.49 1242.29 1307.3 1248.58 1303.11 1252.77C1303.11 1252.77 1303.11 1256.96 1301.02 1256.96C1296.83 1261.15 1294.73 1263.24 1290.54 1267.43C1290.54 1267.43 1286.35 1271.62 1286.35 1273.72C1277.97 1284.19 1269.59 1292.57 1259.12 1300.95C1246.55 1311.43 1231.88 1321.9 1219.31 1332.38C1215.12 1336.57 1158.56 1372.18 1057.99 1407.79C1001.43 1426.65 930.197 1445.5 844.3 1458.07C838.015 1458.07 833.825 1458.07 827.54 1460.17C823.35 1460.17 808.685 1464.36 804.495 1464.36C802.4 1464.36 800.305 1464.36 798.21 1464.36C773.069 1466.45 747.929 1468.55 722.788 1468.55C697.648 1468.55 701.838 1468.55 693.458 1468.55C668.317 1468.55 643.177 1464.36 620.131 1462.26C548.9 1453.88 486.049 1437.12 442.053 1422.46C439.958 1422.46 435.768 1422.46 433.673 1420.36C429.483 1420.36 425.293 1418.27 423.198 1416.17C416.913 1414.08 410.628 1411.98 406.438 1409.89C404.343 1409.89 402.248 1409.89 400.152 1407.79C391.772 1403.6 385.487 1401.51 383.392 1401.51C341.491 1384.75 299.591 1361.71 261.88 1330.28C219.979 1296.76 188.554 1261.15 161.318 1219.25C152.938 1204.59 144.558 1189.92 136.178 1175.26C136.178 1175.26 136.178 1175.26 136.178 1173.16C71.2315 1055.85 108.942 938.529 113.132 930.15C113.132 923.865 115.227 917.58 117.322 911.295C119.417 905.01 121.512 898.726 123.607 894.536V890.346C123.607 886.156 123.607 879.871 123.607 873.586C123.607 858.922 123.607 842.162 121.512 827.498C121.512 804.454 121.512 783.504 121.512 760.46C121.512 754.175 121.512 747.89 121.512 743.701C121.512 729.036 121.512 712.277 123.607 697.612C125.703 676.663 131.988 655.714 138.273 634.764C138.273 630.574 138.273 628.479 140.368 624.29C140.368 613.815 140.368 603.34 138.273 594.96C138.273 588.676 134.083 582.391 131.988 576.106C129.893 569.821 127.798 563.536 127.798 557.252C111.037 475.549 94.2769 393.847 73.3265 312.145C64.9464 274.436 60.7563 236.727 60.7563 199.018C60.7563 161.31 60.7563 184.354 60.7563 178.069C62.8514 98.4617 106.847 52.3732 188.554 46.0884C190.649 46.0884 194.839 46.0884 196.934 46.0884H201.124" fill="white"/>
<path d="M1389.01 628.48C1382.72 647.334 1384.82 664.094 1386.91 685.043C1386.91 689.233 1386.91 693.423 1386.91 697.612C1386.91 710.182 1389.01 724.847 1391.1 737.416C1395.29 777.22 1399.48 819.119 1391.1 863.112C1386.91 888.251 1386.91 919.675 1397.39 959.479C1399.49 969.954 1401.58 980.428 1403.68 988.808C1403.68 990.903 1403.68 992.998 1403.68 995.093C1403.68 1003.47 1403.68 1011.85 1405.77 1020.23V1028.61C1405.77 1034.9 1405.77 1041.18 1405.77 1049.56C1405.77 1049.56 1405.77 1053.75 1405.77 1055.85V1060.04C1405.77 1066.32 1405.77 1072.61 1405.77 1076.8C1405.77 1076.8 1405.77 1078.89 1405.77 1080.98C1405.77 1080.98 1405.77 1083.08 1405.77 1085.17C1405.77 1085.17 1405.77 1085.17 1405.77 1087.27V1089.36C1405.77 1095.65 1405.77 1099.84 1403.68 1106.12C1403.68 1110.31 1403.68 1114.5 1401.58 1118.69C1401.58 1122.88 1399.49 1129.17 1397.39 1133.36C1397.39 1135.45 1397.39 1139.64 1395.3 1141.74V1145.93C1393.2 1150.12 1391.1 1156.4 1389.01 1160.59C1389.01 1164.78 1384.82 1168.97 1384.82 1173.16C1384.82 1175.26 1384.82 1177.35 1384.82 1177.35C1384.82 1177.35 1384.82 1179.45 1384.82 1181.54C1384.82 1185.73 1380.63 1194.11 1374.34 1208.78C1368.06 1221.35 1357.58 1240.2 1340.82 1261.15C1336.63 1265.34 1334.54 1269.53 1330.35 1275.81C1330.35 1277.91 1326.16 1280 1324.06 1282.1C1321.97 1284.19 1319.87 1286.29 1319.87 1286.29C1319.87 1286.29 1315.68 1290.48 1313.59 1292.57L1309.4 1296.76C1301.02 1307.24 1290.54 1317.71 1280.07 1326.09C1267.5 1336.57 1254.93 1347.04 1240.26 1355.42L1236.07 1359.61C1219.31 1370.09 1166.94 1403.6 1074.75 1435.03C1007.71 1458.07 934.387 1474.83 858.965 1485.31C852.68 1485.31 846.395 1487.4 840.11 1487.4C838.015 1487.4 833.825 1487.4 829.635 1487.4C823.35 1487.4 819.16 1489.5 814.97 1489.5H810.779C785.639 1491.59 760.499 1493.69 733.263 1493.69C706.028 1493.69 712.313 1493.69 701.837 1493.69C676.697 1493.69 651.557 1489.5 626.416 1487.4C567.755 1479.02 506.999 1466.45 446.243 1447.6C444.148 1447.6 442.053 1447.6 439.958 1447.6H437.863L433.673 1445.5C431.578 1445.5 429.483 1445.5 427.388 1445.5C421.102 1443.41 414.817 1441.31 410.627 1439.22C408.532 1439.22 406.437 1439.22 404.342 1437.12C393.867 1432.93 389.677 1430.84 387.582 1430.84C341.491 1411.98 299.59 1386.84 263.975 1357.52C222.074 1324 188.553 1286.29 161.318 1242.29C152.938 1227.63 144.557 1212.97 136.177 1196.21C69.136 1074.7 104.752 955.289 111.037 938.53C111.037 932.245 113.132 925.96 115.227 919.675C115.227 913.39 119.417 907.106 121.512 900.821C121.512 900.821 121.512 898.726 121.512 896.631C121.512 892.441 121.512 888.251 121.512 886.156C121.512 875.682 121.512 865.207 121.512 856.827C121.512 852.637 121.512 846.353 121.512 840.068C121.512 817.024 121.512 796.074 121.512 773.03C121.512 766.745 121.512 760.46 121.512 754.176C121.512 737.416 121.512 720.657 125.702 705.992C129.892 685.043 134.082 661.999 142.462 641.049C142.462 641.049 142.462 636.859 142.462 634.765C142.462 628.48 142.462 622.195 142.462 611.72C142.462 607.53 140.367 603.341 138.272 599.151V594.961C138.272 588.676 134.082 582.391 134.082 576.106C119.417 498.594 100.562 418.987 79.6113 330.999C71.2311 295.386 67.041 257.677 67.041 213.683C67.041 169.69 67.041 199.019 67.041 192.734C69.1361 104.747 121.512 50.2786 211.599 41.8989C213.694 41.8989 217.884 41.8989 219.979 41.8989H224.169C226.264 41.8989 230.454 41.8989 232.549 41.8989H234.644C236.739 41.8989 238.834 41.8989 240.929 41.8989C245.119 41.8989 247.214 41.8989 251.404 41.8989C253.499 41.8989 257.689 41.8989 259.785 41.8989C263.975 41.8989 266.07 41.8989 270.26 43.9938C270.26 43.9938 272.355 43.9938 274.45 43.9938C274.45 43.9938 276.545 43.9938 278.64 43.9938C280.735 43.9938 282.83 43.9938 284.925 46.0887H287.02C289.115 46.0887 293.305 48.1837 295.4 50.2786C299.59 50.2786 301.685 52.3735 305.875 54.4685C307.97 54.4685 310.065 56.5634 314.255 58.6583C318.446 58.6583 320.541 62.8482 324.731 64.9431H326.826C331.016 67.0381 335.206 69.133 337.301 71.2279L343.586 75.4178L351.966 81.7026C360.346 87.9874 368.726 94.2721 377.107 100.557C387.582 108.937 398.057 117.316 410.627 127.791C423.197 138.266 435.768 148.74 450.433 159.215C511.189 123.601 580.325 100.557 651.557 87.9873C666.222 85.8924 680.887 83.7975 695.552 81.7026C703.932 81.7026 712.313 81.7025 718.598 79.6076H720.693H787.734C863.155 83.7975 928.102 96.3671 984.668 121.506C1016.09 134.076 1047.52 150.835 1078.94 167.595C1087.32 171.785 1095.7 175.974 1104.08 180.164C1104.08 180.164 1104.08 180.164 1106.18 182.259H1108.27C1154.37 131.981 1202.55 81.7026 1273.78 52.3735C1286.35 48.1837 1296.83 43.9938 1307.3 41.8989C1313.59 41.8989 1321.97 37.709 1328.25 37.709C1334.54 37.709 1342.92 37.709 1349.2 37.709H1353.39C1353.39 37.709 1355.49 37.709 1357.58 37.709H1363.87C1363.87 37.709 1363.87 37.709 1365.96 37.709H1376.44C1376.44 37.709 1378.53 37.709 1380.63 37.709H1382.72C1384.82 37.709 1389.01 37.709 1391.1 37.709C1391.1 37.709 1393.2 37.709 1395.3 37.709C1399.49 37.709 1403.68 39.8039 1407.87 41.8989C1424.63 48.1837 1437.2 56.5634 1447.67 64.9431C1477 90.0823 1491.67 125.696 1493.76 178.069C1495.86 243.012 1483.29 305.86 1466.53 362.423C1443.48 450.411 1414.15 538.398 1386.91 620.1L1389.01 628.48Z" fill="white"/>
<path d="M720.693 1537.68C710.218 1537.68 699.743 1537.68 689.267 1537.68C662.032 1537.68 634.797 1533.49 609.656 1531.4C548.9 1523.02 486.049 1510.45 421.103 1489.5C421.103 1489.5 416.913 1489.5 412.722 1487.4H406.437C406.437 1485.31 400.152 1485.31 400.152 1485.31L393.867 1481.12C389.677 1481.12 387.582 1479.02 383.392 1476.93H381.297H372.917C362.442 1470.64 356.156 1468.55 351.966 1466.45C303.78 1445.5 259.785 1420.36 219.979 1388.94C173.888 1353.33 138.273 1311.43 106.847 1263.24C96.3717 1246.48 87.9916 1229.72 79.6115 1215.06C6.28514 1083.08 41.9008 953.194 50.2809 928.055C50.2809 921.77 52.376 915.485 54.471 909.2C54.471 905.01 56.566 900.82 58.6611 894.536V888.251C58.6611 888.251 58.6611 888.251 58.6611 886.156C58.6611 879.871 58.6611 871.491 58.6611 863.112V856.827C58.6611 852.637 58.6611 846.352 58.6611 840.068C58.6611 819.118 58.6611 798.169 58.6611 777.22V773.03C58.6611 768.84 58.6611 760.46 58.6611 754.175C58.6611 735.321 58.6611 716.467 62.8511 699.707C67.0412 674.568 73.3263 649.429 79.6115 626.385C79.6115 626.385 79.6115 624.29 79.6115 620.1C79.6115 615.91 79.6115 613.815 77.5164 609.625L73.3263 599.15C73.3263 592.866 69.1363 586.581 69.1363 580.296C54.471 500.689 35.6157 421.081 14.6653 337.284C4.19009 297.48 0 257.677 0 211.588C0 165.5 0 196.924 0 188.544C4.19008 79.6074 71.2313 8.37973 182.268 0C186.458 0 190.648 0 194.839 0H199.029C201.124 0 205.314 0 209.504 0H219.979C224.169 0 228.359 0 230.454 0H238.834C240.929 0 243.024 7.96031e-06 247.214 2.09494L261.88 6.28478C261.88 6.28478 261.88 6.28478 266.07 6.28478C270.26 6.28478 272.355 8.37973 276.545 10.4747H278.64C280.735 10.4747 284.925 14.6645 289.115 14.6645C293.305 14.6645 297.495 18.8544 301.685 18.8544C303.781 18.8544 307.971 20.9493 312.161 23.0443C314.256 23.0443 318.446 25.1392 322.636 29.329H324.731C324.731 31.424 326.826 31.424 328.921 33.5189C333.111 35.6138 337.301 37.7088 341.491 39.8037L362.442 52.3733C372.917 58.6581 381.297 67.0378 391.772 73.3226C402.247 81.7023 412.723 90.082 421.103 98.4618H423.198C429.483 106.841 435.768 111.031 444.148 117.316C504.904 85.8922 569.85 64.9429 638.987 54.4682C653.652 52.3733 668.317 50.2783 682.982 48.1834H685.077C691.362 48.1834 699.743 48.1834 706.028 46.0885H712.313H779.354H781.449C861.061 50.2783 930.197 64.9429 990.953 90.082C1024.47 104.747 1055.9 121.506 1087.32 138.265L1095.7 142.455C1137.61 96.3668 1189.98 48.1834 1259.12 20.9493C1271.69 14.6645 1286.35 10.4747 1298.92 8.37972C1307.3 8.37972 1315.68 4.18984 1324.06 4.18984H1328.25C1336.63 4.18984 1345.01 2.09494 1353.39 2.09494H1357.58C1357.58 2.09494 1359.68 2.09494 1361.77 2.09494H1378.53L1412.06 10.4747C1416.25 10.4747 1422.53 14.6645 1426.72 14.6645C1447.67 23.0442 1464.43 33.5189 1479.1 46.0885C1516.81 77.5124 1535.66 125.696 1537.76 188.544C1539.85 259.772 1525.19 324.714 1510.52 385.467C1489.57 465.075 1462.34 546.777 1437.2 622.195L1430.91 645.239C1426.72 655.714 1428.82 666.188 1430.91 685.043V699.707C1430.91 712.277 1435.1 724.846 1435.1 737.416C1439.29 779.315 1443.48 825.403 1435.1 875.681C1430.91 894.536 1435.1 921.77 1441.39 955.289C1443.48 967.858 1445.58 980.428 1447.67 988.808C1447.67 988.808 1447.67 992.998 1447.67 995.093C1447.67 1005.57 1447.67 1013.95 1449.77 1022.33V1032.8C1449.77 1039.09 1449.77 1045.37 1449.77 1053.75C1449.77 1053.75 1449.77 1057.94 1449.77 1062.13H1409.96L1449.77 1064.23C1449.77 1072.61 1449.77 1078.89 1449.77 1083.08C1449.77 1085.17 1449.77 1095.65 1449.77 1095.65C1449.77 1095.65 1449.77 1095.65 1449.77 1097.74C1449.77 1097.74 1449.77 1097.74 1449.77 1099.84C1449.77 1106.12 1449.77 1110.31 1447.67 1116.6C1447.67 1122.88 1445.58 1127.07 1443.48 1131.26C1443.48 1137.55 1441.39 1141.74 1439.29 1148.02C1439.29 1150.12 1439.29 1154.31 1437.2 1156.4L1430.91 1177.35C1430.91 1181.54 1428.82 1183.64 1426.72 1187.83L1422.53 1198.3C1422.53 1204.59 1416.25 1215.06 1409.96 1229.72C1401.58 1244.39 1393.2 1261.15 1380.63 1275.81L1370.15 1290.48C1365.96 1294.67 1363.87 1298.86 1359.68 1303.05C1357.58 1307.24 1353.39 1311.43 1351.3 1313.52L1347.11 1317.71C1347.11 1317.71 1345.01 1319.81 1342.92 1321.9L1338.73 1326.09C1328.25 1336.57 1317.78 1349.14 1305.21 1359.61C1292.64 1370.09 1280.07 1378.47 1265.4 1388.94L1250.74 1403.6H1244.45C1221.41 1418.27 1166.94 1447.6 1085.23 1476.93C1016.09 1499.97 940.672 1518.83 861.061 1529.3C852.68 1529.3 846.395 1531.4 838.015 1531.4C838.015 1531.4 835.92 1531.4 833.825 1531.4C825.445 1531.4 819.16 1533.49 812.875 1533.49H808.685C783.544 1535.58 756.309 1537.68 726.978 1537.68H720.693ZM435.768 1407.79C437.863 1407.79 439.958 1407.79 442.053 1409.89C502.809 1428.74 561.47 1441.31 618.036 1447.6C641.082 1449.69 666.222 1451.79 689.267 1453.88C726.978 1453.88 760.499 1453.88 791.924 1449.69H800.304C800.304 1449.69 802.399 1449.69 806.59 1449.69C812.875 1449.69 817.065 1449.69 821.255 1447.6C827.54 1447.6 831.73 1447.6 835.92 1447.6H838.015C911.341 1437.12 982.573 1420.36 1047.52 1399.41C1139.7 1367.99 1189.98 1336.57 1198.36 1330.28L1204.65 1326.09C1217.22 1315.62 1229.79 1307.24 1242.36 1296.76C1250.74 1290.48 1259.12 1282.1 1267.5 1271.62L1273.78 1265.34C1273.78 1265.34 1275.88 1263.24 1277.97 1261.15L1286.35 1250.67C1288.45 1246.48 1292.64 1244.39 1294.73 1240.2L1298.92 1236.01C1311.49 1221.35 1319.87 1204.59 1328.25 1192.02C1334.54 1181.54 1336.63 1175.26 1336.63 1173.16L1342.92 1156.4C1342.92 1154.31 1342.92 1152.21 1345.01 1150.12L1351.3 1131.26C1351.3 1129.17 1351.3 1127.07 1351.3 1124.98C1351.3 1118.69 1351.3 1116.6 1353.39 1112.41V1108.22C1353.39 1106.12 1355.49 1101.93 1355.49 1099.84C1355.49 1095.65 1355.49 1089.36 1357.58 1085.17V1080.98V1076.79C1357.58 1072.6 1357.58 1068.42 1357.58 1064.23C1357.58 1060.04 1357.58 1057.94 1357.58 1053.75C1357.58 1045.37 1357.58 1039.09 1357.58 1032.8V1022.33C1357.58 1016.04 1357.58 1009.76 1357.58 1003.47V997.187C1357.58 988.808 1355.49 980.428 1351.3 969.953C1340.82 925.96 1338.73 888.251 1345.01 856.827C1351.3 819.118 1349.2 783.504 1345.01 743.701C1345.01 729.036 1342.92 716.467 1340.82 701.802V689.233C1338.73 674.568 1336.63 659.903 1340.82 643.144H1338.73C1338.73 641.049 1347.11 615.91 1347.11 615.91C1374.34 534.208 1401.58 446.22 1426.72 360.328C1441.39 305.86 1453.96 247.202 1451.86 188.544C1449.77 136.171 1433.01 115.221 1420.44 104.747C1412.06 98.4618 1403.68 92.177 1393.2 87.9871C1391.11 87.9871 1386.92 85.8922 1384.82 85.8922L1363.87 81.7023C1363.87 81.7023 1361.77 81.7023 1359.68 81.7023H1357.58C1357.58 81.7023 1355.49 81.7023 1353.39 81.7023H1349.2C1345.01 81.7023 1340.82 81.7023 1336.63 81.7023H1334.54H1330.35C1324.06 81.7023 1319.87 81.7023 1315.68 85.8922C1307.3 87.9871 1296.83 92.177 1288.45 94.2719C1225.6 119.411 1179.51 167.594 1137.61 213.683V217.873L1122.94 228.348L1114.56 232.537H1074.75L1070.56 219.968L1049.61 209.493C1020.28 192.734 988.858 178.069 959.527 165.5C907.151 144.55 848.49 131.981 777.259 127.791H712.313C706.028 127.791 697.648 129.886 691.362 129.886C676.697 129.886 662.032 134.076 647.367 136.171C580.326 146.645 517.474 169.689 460.908 201.113L450.433 207.398H421.103L410.627 199.019C395.962 188.544 383.392 178.069 370.822 165.5H368.727C360.347 155.025 349.871 146.645 339.396 140.36C331.016 134.076 322.636 127.791 314.256 121.506L295.4 108.936C293.305 108.936 289.115 104.747 287.02 102.652H280.735C276.545 98.4618 274.45 96.3669 272.355 94.2719H268.165C266.07 92.177 263.975 90.082 259.785 90.082C259.785 90.082 257.69 90.082 255.595 90.082H249.31C249.31 87.9871 247.214 87.9871 245.119 87.9871H240.929H238.834L209.504 83.7973C205.314 83.7973 205.314 83.7973 203.219 83.7973H199.029C199.029 83.7973 194.839 83.7973 192.743 83.7973C123.607 87.9871 87.9916 125.696 85.8966 194.829C85.8966 201.113 85.8966 209.493 85.8966 215.778C85.8966 255.582 90.0866 289.101 98.4668 322.619C119.417 408.512 136.177 490.214 152.938 569.821C152.938 574.011 155.033 578.201 157.128 582.391V590.771C161.318 597.055 163.413 601.245 163.413 607.53C167.603 622.195 167.603 634.764 165.508 647.334C165.508 651.524 165.508 655.714 161.318 661.998C155.033 680.853 150.843 699.707 146.653 718.562C146.653 731.131 144.558 745.796 144.558 760.46C144.558 775.125 144.558 770.935 144.558 777.22V783.504C144.558 804.454 144.558 825.403 144.558 846.352C144.558 850.542 144.558 854.732 144.558 861.017V867.302C144.558 875.681 144.558 886.156 144.558 894.536C144.558 902.915 144.558 907.105 142.463 913.39V921.77C140.368 928.055 138.273 932.245 138.273 936.434C138.273 942.719 136.177 946.909 134.082 951.099V955.289C131.987 959.479 94.2767 1070.51 155.033 1179.45V1183.64C163.413 1196.21 171.793 1210.87 180.173 1225.54C205.314 1265.34 236.739 1300.95 274.45 1330.28C307.971 1357.52 345.681 1378.47 387.582 1397.32H391.772C391.772 1399.41 395.962 1401.51 400.152 1403.6H404.342L408.532 1405.7H412.722C416.913 1407.79 423.198 1409.89 427.388 1411.98C427.388 1411.98 431.578 1411.98 433.673 1411.98H439.958L435.768 1407.79Z" fill="white"/>
<path d="M400.152 1420.36C404.342 1420.36 410.628 1424.55 416.913 1426.65C410.628 1426.65 404.342 1422.46 400.152 1420.36Z" fill="white"/>
<path d="M739.548 1215.06C720.693 1215.06 680.887 1246.48 680.887 1261.15C680.887 1284.19 712.313 1307.24 743.738 1307.24C775.164 1307.24 796.114 1290.48 796.114 1265.34C796.114 1246.48 760.499 1215.06 739.548 1215.06Z" fill="#BE251E"/>
<path d="M1292.64 1280C1296.83 1275.81 1298.92 1271.62 1303.11 1269.53C1303.11 1269.53 1303.11 1267.43 1305.21 1265.34C1301.02 1269.53 1296.83 1275.81 1292.64 1280Z" fill="black"/>
<path d="M400.152 1420.36C406.437 1422.46 410.627 1424.55 416.912 1426.65C410.627 1424.55 404.342 1422.46 400.152 1420.36Z" fill="black"/>
<path d="M1451.86 366.613C1466.53 307.955 1481.19 249.297 1477 186.449C1477 146.645 1466.53 111.031 1437.2 85.8921C1428.82 77.5124 1416.25 71.2276 1401.58 64.9428C1397.39 64.9428 1393.2 62.8479 1389.01 60.7529C1389.01 60.7529 1386.91 60.7529 1384.82 60.7529C1382.72 60.7529 1378.53 60.7529 1376.44 60.7529H1372.25C1370.15 60.7529 1368.06 60.7529 1363.87 60.7529H1359.68C1357.58 60.7529 1355.49 60.7529 1353.39 60.7529H1349.2C1342.92 60.7529 1336.63 60.7529 1330.35 60.7529C1330.35 60.7529 1330.35 60.7529 1328.25 60.7529C1321.97 60.7529 1315.68 62.8479 1309.4 64.9428C1298.92 67.0377 1288.45 71.2276 1277.97 75.4175C1213.03 102.652 1164.84 150.835 1118.75 201.113C1118.75 203.208 1116.66 205.303 1114.56 205.303C1114.56 205.303 1112.46 205.303 1110.37 207.398C1110.37 207.398 1110.37 207.398 1108.27 207.398C1108.27 207.398 1108.27 207.398 1106.18 207.398H1104.08C1104.08 207.398 1104.08 207.398 1101.99 207.398C1101.99 207.398 1101.99 207.398 1099.89 207.398C1099.89 207.398 1099.89 207.398 1097.8 207.398C1097.8 207.398 1093.61 207.398 1093.61 205.303C1055.9 184.354 1016.09 163.405 976.287 146.645C915.531 121.506 850.585 111.031 785.639 106.841C762.594 106.841 741.643 106.841 718.598 106.841C695.552 108.936 674.602 111.031 651.557 115.221C582.42 125.696 515.379 148.74 454.623 184.354C454.623 184.354 452.528 184.354 450.433 184.354H444.148H439.958C439.958 184.354 439.958 184.354 437.863 184.354C435.768 184.354 433.673 184.354 431.578 182.259C406.437 163.405 383.392 142.455 358.251 123.601C349.871 117.316 341.491 111.031 333.111 104.746L318.446 94.2718C318.446 94.2718 316.351 94.2718 314.255 92.1769C310.065 90.082 307.97 87.9871 303.78 85.8921C303.78 85.8921 299.59 85.8921 297.495 83.7972C293.305 83.7972 291.21 79.6073 287.02 79.6073C287.02 79.6073 282.83 79.6073 280.735 77.5124C278.64 77.5124 274.45 75.4175 272.355 73.3225C270.26 73.3225 268.165 73.3225 266.07 71.2276C263.975 71.2276 259.784 69.1326 257.689 67.0377C255.594 67.0377 253.499 67.0377 251.404 67.0377C247.214 67.0377 245.119 67.0377 243.024 64.9428C240.929 64.9428 238.834 64.9428 234.644 64.9428C230.454 64.9428 228.359 64.9428 224.169 64.9428C222.074 64.9428 217.884 64.9428 215.789 64.9428C213.694 64.9428 211.599 64.9428 207.409 64.9428H203.218C201.123 64.9428 196.933 64.9428 194.838 64.9428C115.227 71.2276 69.1361 117.316 67.041 196.923C67.041 203.208 67.041 211.588 67.041 217.873C67.041 255.582 71.2311 293.29 79.6113 330.999C98.4666 412.701 117.322 494.404 134.082 576.106C134.082 582.391 138.272 588.676 138.272 594.96C138.272 601.245 142.462 607.53 144.557 613.815C146.652 624.289 148.747 632.669 146.652 643.144C146.652 647.334 146.652 649.429 144.557 653.619C138.272 674.568 131.987 695.517 129.892 716.466C127.797 731.131 127.797 747.89 127.797 762.555C127.797 777.219 127.797 775.125 127.797 779.314C127.797 802.359 127.797 823.308 127.797 846.352C127.797 861.017 127.797 877.776 129.892 892.441C129.892 898.726 129.892 902.915 129.892 909.2V913.39C129.892 919.675 125.702 925.96 123.607 930.149C121.512 934.339 119.417 942.719 119.417 949.004C117.322 957.384 77.5162 1074.7 142.462 1192.02C142.462 1192.02 142.462 1192.02 142.462 1194.11C148.747 1208.78 157.128 1223.44 167.603 1238.1C192.743 1280 226.264 1317.71 268.165 1349.14C305.875 1378.46 347.776 1401.51 389.677 1420.36C389.677 1420.36 395.962 1422.46 406.437 1426.65C408.532 1426.65 410.627 1426.65 412.722 1428.74C416.912 1428.74 423.197 1432.93 429.483 1435.03C433.673 1435.03 435.768 1437.12 439.958 1439.22C442.053 1439.22 446.243 1439.22 448.338 1441.31C492.334 1453.88 555.185 1470.64 626.416 1481.12C649.462 1483.21 674.602 1485.31 699.742 1487.4C735.358 1487.4 770.974 1487.4 806.589 1483.21C808.684 1483.21 810.779 1483.21 812.874 1483.21C817.065 1483.21 831.73 1479.02 835.92 1479.02C842.205 1479.02 848.49 1479.02 852.68 1476.93C938.577 1466.45 1009.81 1447.6 1066.37 1426.65C1169.03 1391.03 1223.5 1355.42 1227.69 1351.23C1240.26 1340.76 1254.93 1330.28 1267.5 1319.81C1277.97 1311.43 1286.35 1303.05 1294.73 1292.57C1294.73 1292.57 1298.92 1288.38 1298.92 1286.29C1303.11 1282.1 1307.3 1275.81 1311.49 1271.62C1315.68 1267.43 1319.87 1261.15 1324.06 1256.96C1359.68 1210.87 1363.87 1183.64 1363.87 1183.64C1363.87 1183.64 1363.87 1181.54 1363.87 1179.45C1363.87 1179.45 1363.87 1177.35 1363.87 1175.26C1363.87 1171.07 1368.06 1166.88 1368.06 1162.69C1368.06 1158.5 1372.25 1152.21 1372.25 1148.02C1372.25 1143.83 1374.34 1139.64 1376.44 1135.45C1376.44 1131.26 1378.53 1124.98 1380.63 1120.79C1380.63 1116.6 1380.63 1112.41 1382.72 1108.22C1382.72 1104.03 1382.72 1097.74 1384.82 1093.55C1384.82 1093.55 1384.82 1089.36 1384.82 1087.27C1384.82 1085.17 1384.82 1083.08 1384.82 1080.98C1384.82 1074.7 1384.82 1070.51 1384.82 1064.23C1384.82 1060.04 1384.82 1057.94 1384.82 1053.75C1384.82 1047.47 1384.82 1041.18 1384.82 1034.9V1026.52C1384.82 1020.23 1384.82 1011.85 1382.72 1005.57C1382.72 1003.47 1382.72 1001.38 1382.72 999.282C1382.72 988.808 1380.63 980.428 1378.53 969.953C1370.15 936.434 1365.96 898.725 1372.25 867.302C1382.72 812.833 1372.25 758.365 1368.06 705.992C1368.06 678.758 1361.77 655.713 1370.15 630.574C1397.39 544.682 1426.72 460.885 1449.77 374.993L1451.86 366.613ZM144.557 328.904C144.557 320.524 140.367 312.145 140.367 303.765C140.367 301.67 140.367 297.48 140.367 295.385C125.702 205.303 138.272 167.594 140.367 157.12C140.367 155.025 140.367 152.93 140.367 152.93C152.938 127.791 173.888 119.411 203.218 123.601C209.504 123.601 213.694 123.601 219.979 127.791C261.88 138.265 297.495 165.499 331.016 192.734C341.491 201.113 354.061 209.493 362.441 219.968C368.726 228.347 370.822 236.727 360.346 245.107C320.541 272.341 287.02 307.955 257.689 343.569C249.309 351.948 247.214 354.043 243.024 343.569C243.024 343.569 243.024 341.474 243.024 339.379C238.834 326.809 234.644 314.24 230.454 301.67C224.169 282.816 211.599 276.531 192.743 276.531C173.888 276.531 165.508 287.005 167.603 303.765C171.793 328.904 178.078 354.043 184.363 377.088C188.553 402.227 194.838 427.366 199.028 450.41C199.028 456.695 199.028 462.98 199.028 469.265C196.933 475.549 192.743 479.739 188.553 486.024C184.363 479.739 178.078 475.549 178.078 469.265C167.603 421.081 157.128 372.898 146.652 324.714L144.557 328.904ZM1296.83 1118.69C1284.26 1177.35 1248.64 1225.53 1206.74 1265.34C1171.13 1296.76 1127.13 1321.9 1083.13 1344.95C1068.47 1353.33 1053.8 1359.61 1037.04 1365.9C995.143 1384.75 951.147 1397.32 905.056 1405.7C846.395 1416.17 810.779 1428.74 726.978 1430.84C634.796 1426.65 546.805 1409.89 463.003 1376.37C412.722 1357.52 364.536 1332.38 316.351 1300.95C240.929 1250.67 188.553 1181.54 173.888 1091.46C165.508 1034.9 163.413 976.238 199.028 923.865C203.218 917.58 203.218 907.105 203.218 896.631C203.218 850.542 192.743 802.359 199.028 756.27C207.409 687.137 230.454 620.1 270.26 559.347C272.355 555.157 276.545 550.967 280.735 544.682C316.351 494.404 358.251 454.6 408.532 418.986C431.578 402.227 456.718 416.891 477.668 423.176C498.619 429.461 519.569 439.936 536.33 452.505C555.185 467.17 571.945 483.929 584.515 502.783C609.656 546.777 630.606 594.96 653.652 641.049C657.842 649.429 657.842 657.808 664.127 666.188C674.602 682.948 685.077 699.707 710.218 697.612C743.738 695.517 777.259 697.612 812.874 697.612C831.73 697.612 840.11 676.663 846.395 657.808C852.68 636.859 854.775 615.91 863.155 597.055C892.486 530.018 936.482 471.359 1001.43 433.651C1016.09 425.271 1032.85 416.891 1051.71 412.701C1076.85 406.417 1097.8 421.081 1114.56 435.746C1154.37 469.265 1189.98 502.783 1217.22 546.777C1219.31 550.967 1223.5 555.157 1225.6 559.347C1252.83 605.435 1275.88 653.619 1280.07 710.182C1284.26 749.985 1290.54 787.694 1290.54 827.498C1290.54 850.542 1286.35 873.586 1284.26 898.725C1284.26 909.2 1284.26 921.77 1284.26 932.244C1288.45 957.384 1294.73 980.428 1303.11 1003.47C1315.68 1043.28 1303.11 1080.98 1294.73 1118.69H1296.83ZM1363.87 423.176C1355.49 458.79 1345.01 494.404 1334.54 527.923C1334.54 530.018 1330.35 532.112 1326.16 534.207C1321.97 519.543 1309.4 504.878 1313.59 490.214C1324.06 439.936 1338.73 389.657 1351.3 341.474C1351.3 335.189 1355.49 326.809 1355.49 320.524C1355.49 320.524 1359.68 301.67 1349.2 293.29C1332.44 278.626 1315.68 293.29 1307.3 301.67C1294.73 314.24 1290.54 333.094 1282.16 349.853C1280.07 356.138 1277.97 364.518 1275.88 370.803C1269.59 385.467 1265.4 381.277 1254.93 370.803C1254.93 370.803 1254.93 370.803 1252.83 368.708C1221.41 335.189 1189.98 301.67 1158.56 268.151C1152.27 261.866 1150.18 259.771 1156.46 251.392C1198.36 207.398 1242.36 167.594 1296.83 140.36C1305.21 136.17 1315.68 131.981 1324.06 127.791C1349.2 117.316 1380.63 125.696 1397.39 152.93C1397.39 152.93 1397.39 155.025 1399.49 157.12C1399.49 157.12 1399.49 157.12 1399.49 159.215C1405.77 178.069 1405.77 211.588 1399.49 247.202C1389.01 326.809 1363.87 421.081 1363.87 421.081V423.176Z" fill="black"/>
<path d="M1305.21 1005.57C1298.92 982.523 1292.64 957.384 1286.35 934.339C1284.26 923.865 1286.35 911.295 1286.35 900.82C1286.35 877.776 1292.64 854.732 1292.64 829.593C1292.64 789.789 1284.26 752.08 1282.16 712.277C1277.97 657.808 1254.93 609.625 1227.69 561.442C1225.6 557.252 1223.5 553.062 1219.31 548.872C1192.08 506.973 1154.37 471.359 1116.65 437.841C1097.8 423.176 1076.85 410.606 1053.8 414.796C1037.04 418.986 1020.28 427.366 1003.52 435.746C938.577 473.454 894.581 532.112 865.25 599.15C856.87 618.005 854.775 638.954 848.49 659.903C844.3 678.758 833.825 697.612 814.97 699.707C781.449 703.897 747.928 699.707 712.313 699.707C685.077 701.802 676.697 682.948 666.222 668.283C662.032 661.998 659.937 651.524 655.747 643.144C632.701 597.055 611.751 548.872 586.61 504.878C576.135 486.024 557.28 467.17 538.425 454.6C521.664 442.03 500.714 431.556 479.764 425.271C458.813 418.986 433.673 404.322 410.627 421.081C360.346 456.695 318.446 496.499 282.83 546.777C278.64 550.967 276.545 555.157 272.355 561.442C232.549 622.195 209.504 689.232 201.124 758.365C194.838 804.454 203.219 852.637 205.314 898.725C205.314 907.105 205.314 917.58 201.124 925.96C165.508 978.333 167.603 1039.09 175.983 1093.55C190.648 1183.64 240.929 1252.77 318.446 1303.05C364.536 1334.47 414.817 1359.61 465.098 1378.46C548.9 1409.89 634.796 1432.93 729.073 1432.93C804.494 1432.93 840.11 1426.65 907.151 1409.89C953.242 1401.51 997.238 1384.75 1039.14 1367.99C1053.8 1361.71 1068.47 1353.33 1085.23 1347.04C1127.13 1324 1171.13 1298.86 1208.84 1267.43C1252.83 1229.72 1286.35 1179.45 1298.92 1120.79C1307.3 1083.08 1319.87 1045.37 1307.3 1005.57H1305.21ZM951.147 661.998C970.002 615.91 1028.66 601.245 1064.28 636.859C1072.66 645.239 1081.04 657.808 1089.42 668.283C1089.42 670.378 1091.51 674.568 1095.7 680.853C1087.32 678.758 1083.13 678.758 1078.94 674.568C1053.8 655.713 1028.66 647.334 997.238 655.713C984.668 657.808 974.192 666.188 961.622 670.378C957.432 670.378 955.337 670.378 951.147 670.378C951.147 666.188 951.147 661.998 951.147 659.903V661.998ZM695.552 976.238C714.408 957.383 770.974 955.289 794.019 969.953C802.399 976.238 812.874 988.808 812.874 999.282C812.874 1007.66 798.209 1018.14 789.829 1020.23C777.259 1024.42 762.594 1022.33 747.928 1024.42C735.358 1024.42 720.693 1024.42 708.123 1020.23C699.742 1018.14 689.267 1009.76 687.172 1001.38C687.172 992.997 691.362 980.428 697.647 976.238H695.552ZM408.532 659.903C425.293 636.859 444.148 613.815 479.764 615.91C496.524 615.91 538.425 649.429 542.615 666.188C542.615 668.283 536.329 676.663 534.234 676.663C527.949 676.663 521.664 672.473 515.379 670.378C483.954 657.808 454.623 653.618 425.293 676.663C421.102 680.853 412.722 678.758 406.437 680.853C406.437 674.568 406.437 668.283 410.627 664.093L408.532 659.903ZM479.764 814.928C467.193 800.264 452.528 800.264 442.053 814.928C427.388 837.972 414.817 863.112 404.342 890.346C398.057 907.105 404.342 911.295 423.198 907.105C431.578 907.105 442.053 902.915 450.433 905.01C456.718 905.01 469.288 907.105 469.288 915.485C469.288 921.77 456.718 921.77 450.433 921.77C431.578 925.96 412.722 928.055 393.867 934.339C381.297 938.529 370.822 944.814 358.251 951.099C349.871 955.289 345.681 955.289 345.681 944.814C345.681 871.491 356.156 802.359 408.532 747.89C423.197 731.131 442.053 726.941 463.003 726.941C492.334 726.941 530.044 752.08 548.9 798.169C561.47 829.593 569.85 865.207 580.325 898.725C580.325 905.01 580.325 913.39 580.325 919.675C580.325 934.339 569.85 938.529 559.375 930.149C538.425 917.58 519.569 900.82 511.189 873.586C504.904 852.637 490.239 833.783 475.573 814.928H479.764ZM938.577 1160.59C915.531 1168.97 890.391 1177.35 867.345 1181.54C854.775 1183.64 848.49 1187.83 846.395 1202.49C842.205 1233.91 831.73 1265.34 812.874 1292.57C796.114 1317.71 770.974 1328.19 733.263 1326.09C701.837 1326.09 666.222 1300.95 653.652 1259.05C647.367 1240.2 638.986 1219.25 636.891 1198.3C634.796 1185.73 628.511 1181.54 618.036 1181.54C590.8 1185.73 567.755 1175.26 544.71 1162.69C532.139 1156.4 530.044 1148.02 532.139 1137.55C532.139 1133.36 538.425 1127.07 542.615 1124.98C546.805 1124.98 553.09 1129.17 555.185 1133.36C565.66 1150.12 582.42 1154.31 599.181 1156.4C649.462 1162.69 693.457 1145.93 729.073 1110.31C739.548 1099.84 745.833 1091.46 762.594 1110.31C796.114 1148.02 840.11 1173.16 894.581 1152.21C902.961 1148.02 911.341 1141.74 919.721 1137.55C923.911 1133.36 932.292 1127.07 934.387 1127.07C940.672 1131.26 949.052 1137.55 951.147 1143.83C951.147 1148.02 944.862 1158.5 938.577 1160.59ZM1125.04 938.529C1120.85 944.814 1108.27 951.099 1106.18 949.004C1078.94 930.149 1047.52 923.865 1016.09 921.77C1009.81 921.77 1005.62 917.58 999.333 915.485C997.238 915.485 995.143 913.39 993.048 911.295C995.143 911.295 999.333 907.105 1001.43 907.105C1018.19 907.105 1037.04 900.82 1053.8 905.01C1070.56 909.2 1076.85 905.01 1070.56 890.346C1060.09 863.112 1049.61 837.972 1034.95 814.928C1026.57 800.264 1009.81 796.074 999.333 810.738C984.668 829.593 970.002 852.637 959.527 873.586C949.052 900.82 928.102 915.485 902.961 925.96C902.961 925.96 892.486 919.675 892.486 917.58C898.771 858.922 913.436 804.454 949.052 758.365C995.143 699.707 1053.8 714.371 1085.23 773.03C1110.37 817.023 1120.85 865.207 1122.94 911.295C1122.94 921.77 1125.04 932.244 1122.94 936.434L1125.04 938.529Z" fill="white"/>
<path d="M1401.58 249.297C1391.1 328.904 1365.96 423.176 1365.96 423.176C1357.58 458.79 1347.11 494.404 1336.63 527.923C1336.63 530.018 1332.44 532.112 1328.25 534.207C1324.06 519.543 1311.49 504.878 1315.68 490.214C1326.16 439.936 1340.82 389.657 1353.39 341.474C1353.39 335.189 1357.58 326.809 1357.58 320.524C1357.58 320.524 1361.77 301.67 1351.3 293.29C1334.54 278.626 1317.78 293.29 1309.4 301.67C1296.83 314.24 1292.64 333.094 1284.26 349.853C1282.16 356.138 1280.07 364.518 1277.97 370.803C1271.69 385.467 1267.5 381.277 1257.02 370.803C1257.02 370.803 1257.02 370.803 1254.93 368.708C1223.5 335.189 1192.08 301.67 1160.65 268.151C1154.37 261.866 1152.27 259.771 1158.56 251.392C1200.46 207.398 1244.45 167.594 1298.92 140.36C1307.3 136.17 1317.78 131.981 1326.16 127.791C1351.3 117.316 1382.72 125.696 1399.49 152.93C1399.49 152.93 1399.48 155.025 1401.58 157.12C1401.58 157.12 1401.58 157.12 1401.58 159.215C1407.87 178.069 1407.87 211.588 1401.58 247.202V249.297Z" fill="white"/>
<path d="M364.536 243.012C324.731 270.246 291.21 305.86 261.88 341.474C253.499 349.853 251.404 351.948 247.214 341.474C247.214 341.474 247.214 339.379 247.214 337.284C243.024 324.714 238.834 312.145 234.644 299.575C228.359 280.721 215.789 274.436 196.933 274.436C178.078 274.436 169.698 284.91 171.793 301.67C175.983 326.809 182.268 351.948 188.553 374.993C192.743 400.132 199.028 425.271 203.219 448.315C203.219 454.6 203.219 460.885 203.219 467.17C201.123 473.454 196.933 477.644 192.743 483.929C188.553 477.644 182.268 473.454 182.268 467.17C171.793 418.986 161.318 370.803 150.843 322.619C150.843 314.239 146.652 305.86 146.652 297.48C146.652 295.385 146.652 291.195 146.652 289.1C131.987 199.018 144.557 161.309 146.652 150.835C146.652 148.74 146.652 146.645 146.652 146.645C159.223 121.506 180.173 113.126 209.504 117.316C215.789 117.316 219.979 117.316 226.264 121.506C268.165 131.98 303.78 159.215 337.301 186.449C347.776 194.828 360.346 203.208 368.727 213.683C375.012 222.062 377.107 230.442 366.631 238.822L364.536 243.012Z" fill="white"/>
<path d="M932.292 1129.17C930.197 1129.17 923.911 1135.45 917.626 1139.64C909.246 1143.83 900.866 1150.12 892.486 1154.31C838.015 1175.26 794.019 1152.21 760.498 1112.41C743.738 1093.55 739.548 1101.93 726.978 1112.41C691.362 1148.02 647.366 1164.78 597.085 1158.5C580.325 1156.4 563.565 1152.21 553.09 1135.45C550.995 1131.26 542.614 1127.07 540.519 1127.07C536.329 1127.07 530.044 1133.36 530.044 1139.64C527.949 1150.12 530.044 1158.5 542.614 1164.78C565.66 1177.35 590.8 1185.73 615.941 1183.64C628.511 1183.64 632.701 1185.73 634.796 1200.4C638.986 1221.34 645.271 1240.2 651.556 1261.15C666.222 1300.95 699.742 1326.09 731.168 1328.19C768.879 1328.19 794.019 1319.81 810.779 1294.67C829.635 1267.43 840.11 1238.1 844.3 1204.59C844.3 1189.92 852.68 1187.83 865.25 1183.64C890.391 1179.45 913.436 1171.07 936.482 1162.69C942.767 1162.69 949.052 1150.12 949.052 1145.93C946.957 1139.64 938.577 1133.36 932.292 1129.17ZM789.829 1288.38C789.829 1288.38 789.829 1290.48 787.734 1292.57C787.734 1292.57 787.734 1292.57 785.639 1294.67C785.639 1294.67 785.639 1294.67 783.544 1296.76C783.544 1296.76 781.449 1296.76 779.354 1298.86C770.974 1305.14 758.403 1307.24 743.738 1307.24C712.312 1307.24 680.887 1284.19 680.887 1261.15C680.887 1238.1 680.887 1256.96 680.887 1254.86C682.982 1250.67 687.172 1244.39 693.457 1240.2C695.552 1238.1 697.647 1236.01 701.837 1233.91C714.408 1223.44 729.073 1215.06 739.548 1215.06C760.498 1215.06 796.114 1246.48 796.114 1265.34C796.114 1273.72 796.114 1282.1 789.829 1288.38Z" fill="black"/>
<path d="M584.516 917.58C584.516 932.244 574.04 936.434 563.565 928.055C542.615 915.485 523.759 898.726 515.379 871.491C509.094 850.542 494.429 831.688 479.764 812.833C467.193 798.169 452.528 798.169 442.053 812.833C427.388 835.878 414.817 861.017 404.342 888.251C398.057 905.01 404.342 909.2 423.198 905.01C431.578 905.01 442.053 900.82 450.433 902.915C456.718 902.915 469.288 905.01 469.288 913.39C469.288 919.675 456.718 919.675 450.433 919.675C431.578 923.865 412.722 925.96 393.867 932.244C381.297 936.434 370.822 942.719 358.251 949.004C349.871 953.194 345.681 953.194 345.681 942.719C345.681 869.396 356.156 800.264 408.532 745.796C423.198 729.036 442.053 724.846 463.003 724.846C492.334 724.846 530.044 749.985 548.9 796.074C561.47 827.498 569.85 863.112 580.325 896.631C580.325 902.915 580.325 911.295 580.325 917.58H584.516Z" fill="black"/>
<path d="M1125.04 938.529C1120.84 944.814 1108.27 951.099 1106.18 949.004C1078.94 930.15 1047.52 923.865 1016.09 921.77C1009.81 921.77 1005.62 917.58 999.333 915.485C997.238 915.485 995.143 913.39 993.048 911.295C995.143 911.295 999.333 907.105 1001.43 907.105C1018.19 907.105 1037.04 900.82 1053.8 905.01C1070.56 909.2 1076.85 905.01 1070.56 890.346C1060.09 863.112 1049.61 837.973 1034.95 814.928C1026.57 800.264 1009.81 796.074 999.333 810.738C984.667 829.593 970.002 852.637 959.527 873.586C949.052 900.82 928.101 915.485 902.961 925.96C902.961 925.96 892.486 919.675 892.486 917.58C898.771 858.922 913.436 804.454 949.052 758.365C995.143 699.707 1053.8 714.372 1085.23 773.03C1110.37 817.023 1120.84 865.207 1122.94 911.295C1122.94 921.77 1125.04 932.244 1122.94 936.434L1125.04 938.529Z" fill="black"/>
<path d="M812.875 999.282C812.875 1007.66 798.209 1018.14 789.829 1020.23C777.259 1024.42 762.594 1022.33 747.928 1024.42C735.358 1024.42 720.693 1024.42 708.123 1020.23C699.743 1018.14 689.267 1009.76 687.172 1001.38C687.172 992.997 691.362 980.428 697.648 976.238C716.503 957.384 773.069 955.289 796.114 969.953C804.494 976.238 814.97 988.808 814.97 999.282H812.875Z" fill="black"/>
<path d="M540.52 664.093C540.52 666.188 534.235 674.568 532.14 674.568C525.855 674.568 519.569 670.378 513.284 668.283C481.859 655.714 452.528 651.524 423.198 674.568C419.008 678.758 410.627 676.663 404.342 678.758C404.342 672.473 404.342 666.188 408.532 661.998C425.293 638.954 444.148 615.91 479.764 618.005C496.524 618.005 538.425 651.524 542.615 668.283L540.52 664.093Z" fill="black"/>
<path d="M1095.7 680.853C1087.32 678.758 1083.13 678.758 1078.94 674.568C1053.8 655.713 1028.66 647.334 997.238 655.714C984.668 657.808 974.192 666.188 961.622 670.378C957.432 670.378 955.337 670.378 951.147 670.378C951.147 666.188 951.147 661.998 951.147 659.903C970.002 613.815 1028.66 599.15 1064.28 634.764C1072.66 643.144 1081.04 655.714 1089.42 666.188C1089.42 668.283 1091.51 672.473 1095.7 678.758V680.853Z" fill="black"/>
</svg>
