<svg xmlns="http://www.w3.org/2000/svg" id="Layer_1" data-name="Layer 1" version="1.1" viewBox="0 0 285.997 285.997"><defs id="defs1"><style id="style1">.cls-4{fill:#8bc53f}</style></defs><g id="Coin_Gecko_AI" data-name="Coin Gecko AI" transform="translate(4.996 5.001)"><path id="path1" d="M137.39 0A138 138 0 1 0 276 137.39 138 138 0 0 0 137.39 0Zm.05 10.44a127.65 127.65 0 0 1 128.21 127 127.63 127.63 0 1 1-128.21-127Z" style="display:inline;fill:#000;stroke:#000;stroke-width:10;stroke-dasharray:none;stroke-opacity:1"/><path id="path4" d="M117.383 67.404c-4.157.077-8.266.559-12.313 1.545-88.25 24.31-38.21 83.62-70.61 143.24 4.61 9.78 54.3 66.842 126.2 51.532 0 0-24.59-59.092 30.9-87.451 45.01-23.09 77.53-65.81 11.18-83.88-9.26-2.68-18.86-6.48-28.58-10.32-.56-2.44-2.72-5.48-7.09-9.19-6.35-5.51-18.28-5.37-28.59-2.93-7.112-1.676-14.17-2.674-21.097-2.546zm2.527 14.506a24.68 24.68 0 0 1 24.68 24.66l.01.01a24.68 24.68 0 1 1-24.69-24.67Z" class="cls-4" style="display:inline;fill:#000"/><path id="path8" d="M137.28 106.8a17.36 17.36 0 1 1-17.36-17.36 17.36 17.36 0 0 1 17.36 17.36z" style="fill:#000"/><path id="path9" d="M233.63 142.08c-20 14.09-42.74 24.78-75 24.78-15.1 0-18.16-16-28.14-8.18-5.15 4.06-23.31 13.14-37.72 12.45-14.41-.69-37.77-9.13-44.28-39.9-2.58 30.77-3.9 53.42-15.49 79.39 23 36.83 77.84 65.24 127.62 53-5.31-37.35 27.38-73.93 45.72-92.62 7-7.09 20.3-18.66 27.29-28.91z" class="cls-4" style="display:inline;fill:#000"/></g></svg>