<?xml version="1.0" standalone="no"?>
<!DOCTYPE svg PUBLIC "-//W3C//DTD SVG 20010904//EN"
 "http://www.w3.org/TR/2001/REC-SVG-20010904/DTD/svg10.dtd">
<svg version="1.0" xmlns="http://www.w3.org/2000/svg"
 width="9058.000000pt" height="10417.000000pt" viewBox="0 0 9058.000000 10417.000000"
 preserveAspectRatio="xMidYMid meet">

<g transform="translate(0.000000,10417.000000) scale(0.100000,-0.100000)"
fill="#000000" stroke="none">
<path d="M45050 104064 c-807 -349 -9084 -4609 -14685 -7557 -4454 -2344
-7738 -4130 -7959 -4328 l-31 -27 25 -27 c279 -300 6185 -3381 11365 -5927
2413 -1186 3852 -1848 4021 -1848 125 0 802 283 1749 730 890 421 1268 611
3745 1885 987 508 1800 925 1805 927 10 3 425 -210 5149 -2639 l2359 -1213
3341 1502 c5742 2580 7427 3339 8991 4051 2948 1342 3838 1783 3889 1930 8 21
6 31 -10 48 -167 187 -3263 1852 -11999 6454 -5165 2721 -8999 4759 -9940
5285 -422 236 -979 520 -1283 654 -182 81 -363 146 -403 146 -13 0 -71 -21
-129 -46z"/>
<path d="M13375 87476 c-590 -198 -2229 -966 -4675 -2192 -1275 -638 -1387
-696 -5439 -2789 l-3252 -1680 4 -10065 c4 -9577 8 -10738 37 -13585 30 -2982
74 -4945 121 -5445 13 -145 17 -160 40 -160 88 0 2375 984 5514 2374 468 206
2547 1131 4620 2055 l3770 1679 5 7710 5 7710 1660 -905 c4107 -2238 6320
-3439 13480 -7316 204 -110 375 -200 380 -200 6 0 532 237 1170 526 1914 866
2592 1176 4057 1853 1563 722 2998 1371 5148 2326 1612 717 2563 1156 3435
1588 647 321 905 467 905 513 0 385 -3903 2538 -14195 7829 -8378 4308 -15516
7840 -16537 8182 -98 33 -131 32 -253 -8z"/>
<path d="M78115 86796 c-977 -364 -7368 -3206 -11545 -5134 -1773 -818 -3053
-1424 -3880 -1839 -494 -247 -713 -367 -718 -396 -19 -94 2135 -1376 5368
-3194 2868 -1614 5085 -2933 5265 -3133 l20 -22 -36 -32 c-234 -202 -2759
-1418 -5724 -2756 -363 -164 -1515 -684 -2560 -1155 -4879 -2201 -9267 -4184
-25860 -11685 -21060 -9520 -21903 -9901 -24555 -11102 -8788 -3980 -11960
-5428 -12897 -5888 -253 -124 -311 -157 -357 -200 -222 -210 -334 -861 -411
-2395 -62 -1243 -99 -3058 -140 -6850 -69 -6438 -87 -8217 -79 -8224 5 -5
2602 -1329 5771 -2944 l5763 -2936 4127 1863 c4726 2133 4754 2146 5633 2548
3410 1562 5941 2788 6214 3011 24 20 28 28 22 52 -15 61 -191 204 -503 409
-383 251 -746 461 -1388 801 -1031 546 -2766 1522 -4385 2467 -974 568 -1613
929 -2295 1297 -396 214 -986 507 -1105 550 -275 99 -436 185 -546 295 -74 74
-98 122 -74 151 99 120 1769 939 4190 2057 1400 647 2272 1041 4600 2083 7730
3458 13684 6139 26435 11905 5473 2475 9336 4220 17345 7838 7363 3325 11036
4989 14308 6478 1743 794 5866 2684 5876 2694 8 8 27 1690 135 12055 28 2635
52 4919 55 5076 l5 287 -3167 1625 c-3888 1996 -4094 2101 -5492 2800 -1977
989 -3146 1546 -3296 1572 -18 3 -62 -8 -119 -29z"/>
<path d="M90110 52551 c-202 -73 -483 -194 -909 -391 -245 -113 -416 -194
-1071 -510 -919 -442 -2261 -1061 -3681 -1695 -1370 -613 -3267 -1469 -4714
-2128 -2013 -917 -3147 -1436 -3152 -1441 -3 -3 -19 -1442 -34 -3198 -47
-5400 -52 -5853 -79 -7073 -62 -2739 -170 -4691 -275 -4941 -14 -34 -18 -36
-46 -30 -218 43 -2406 1131 -5319 2644 -1949 1012 -3918 2051 -6160 3252
-2161 1157 -2964 1556 -3526 1750 -299 103 -491 142 -699 143 -220 0 -393 -45
-675 -178 -85 -40 -267 -125 -405 -190 -840 -394 -3524 -1596 -6485 -2905
-1326 -586 -1515 -670 -2120 -940 -2730 -1219 -4665 -2117 -4704 -2183 -9 -15
-5 -24 24 -49 515 -443 7000 -3950 14890 -8051 503 -261 4264 -2215 8358
-4341 l7443 -3865 3432 1776 c3647 1886 3909 2022 4667 2421 2967 1561 5269
2858 5385 3036 33 50 61 312 84 776 212 4234 195 23712 -24 27665 -26 467 -52
677 -85 682 -8 1 -62 -15 -120 -36z"/>
<path d="M53190 18741 c-4077 -1754 -4912 -2114 -5540 -2391 -1237 -545 -1564
-668 -1975 -741 -170 -30 -466 -37 -635 -15 -367 49 -749 180 -1395 482 -115
53 -669 328 -1230 610 -2282 1145 -3271 1602 -4075 1879 -466 161 -766 228
-1025 228 -175 -1 -227 -14 -470 -118 -688 -295 -3501 -1562 -6735 -3032
-3528 -1604 -5990 -2693 -7019 -3105 -303 -121 -357 -138 -433 -138 -148 -1
-289 -35 -337 -82 -101 -99 29 -276 419 -572 890 -677 3261 -1987 7750 -4283
1503 -769 1598 -817 9408 -4756 l5264 -2655 2501 1235 c4939 2439 8433 4154
13962 6853 1733 846 2109 1031 3460 1706 2569 1281 3970 2016 3970 2082 0 8
-40 36 -90 64 -467 259 -2842 1479 -5820 2991 -635 322 -8254 4177 -8480 4290
l-110 55 -1365 -587z"/>
</g>
</svg>
