<?xml version="1.0" standalone="no"?>
<!DOCTYPE svg PUBLIC "-//W3C//DTD SVG 20010904//EN"
 "http://www.w3.org/TR/2001/REC-SVG-20010904/DTD/svg10.dtd">
<svg version="1.0" xmlns="http://www.w3.org/2000/svg"
 width="10417.000000pt" height="7617.000000pt" viewBox="0 0 10417.000000 7617.000000"
 preserveAspectRatio="xMidYMid meet">

<g transform="translate(0.000000,7617.000000) scale(0.100000,-0.100000)"
fill="#000000" stroke="none">
<path d="M66071 76134 c-117 -31 -150 -68 -288 -316 -752 -1359 -1620 -3137
-2323 -4763 -62 -143 -114 -261 -115 -263 -1 -1 -189 24 -416 57 -3841 556
-7690 822 -11499 797 -2385 -15 -4509 -123 -6820 -347 -1291 -124 -3063 -345
-4055 -504 l-40 -7 -139 324 c-593 1378 -1410 3027 -2265 4572 -196 355 -229
399 -326 435 -100 37 -128 34 -995 -125 -6486 -1187 -12833 -3159 -18845
-5857 -578 -259 -694 -314 -732 -343 -22 -17 -129 -167 -282 -398 -3726 -5608
-6755 -11322 -9073 -17116 -4763 -11906 -6614 -24294 -5618 -37590 44 -582
125 -1546 149 -1772 12 -105 43 -177 103 -234 46 -44 480 -361 1068 -780 6197
-4418 12636 -7833 19610 -10399 792 -292 1543 -555 2365 -831 791 -266 1888
-618 1975 -634 82 -15 187 15 259 76 50 42 600 806 1057 1469 1501 2175 2841
4417 4000 6693 115 227 119 236 122 307 6 108 -16 165 -92 240 -60 59 -66 62
-256 134 -107 41 -406 158 -665 262 -2106 840 -4197 1840 -6295 3009 -763 425
-755 420 -805 511 -23 44 -30 69 -33 135 -4 73 -1 88 22 140 15 33 37 70 49
83 12 13 132 107 267 209 423 321 828 639 1177 924 101 82 204 158 230 170 34
15 68 21 119 21 65 0 81 -5 210 -62 728 -327 1132 -504 1639 -718 8374 -3533
17120 -5152 25860 -4788 7619 318 15135 2139 22315 5408 l355 162 75 0 c102 0
136 -18 305 -156 391 -320 812 -651 1219 -959 281 -212 313 -244 337 -335 6
-22 9 -72 7 -111 -5 -79 -38 -151 -92 -202 -46 -44 -706 -423 -1331 -764
-2028 -1107 -4062 -2046 -6260 -2889 -188 -73 -323 -130 -345 -147 -46 -37
-97 -113 -111 -165 -6 -23 -9 -74 -7 -112 5 -82 11 -93 316 -670 1339 -2532
2860 -4996 4580 -7420 128 -181 250 -347 269 -367 53 -55 139 -90 221 -89 57
0 125 18 467 126 3709 1169 7126 2493 10470 4057 1203 563 2594 1258 3760
1880 3439 1834 6764 3922 10080 6332 329 240 362 267 393 329 33 66 39 108 87
642 384 4260 477 8308 285 12350 -594 12457 -3894 24237 -9938 35470 -1277
2374 -2681 4728 -4222 7080 -397 606 -964 1448 -998 1480 -18 18 -87 57 -160
90 -2160 981 -4074 1765 -6182 2530 -4299 1561 -8799 2779 -13270 3594 -463
85 -844 151 -860 150 -8 0 -39 -7 -69 -15z m-30111 -31799 c1891 -143 3644
-910 5100 -2232 173 -157 525 -511 674 -677 1386 -1549 2279 -3563 2525 -5696
60 -514 75 -855 68 -1503 -5 -507 -10 -610 -43 -977 -82 -919 -290 -1866 -597
-2720 -448 -1244 -1085 -2332 -1940 -3315 -149 -171 -648 -673 -812 -816 -891
-780 -1823 -1333 -2870 -1704 -1235 -438 -2614 -568 -3915 -369 -3132 478
-5841 2817 -7075 6109 -578 1542 -798 3237 -639 4935 292 3144 1898 5958 4326
7578 1281 855 2721 1332 4234 1402 241 11 712 3 964 -15z m33190 0 c1536 -116
2985 -645 4259 -1554 2195 -1568 3666 -4105 4025 -6941 67 -525 81 -781 81
-1455 0 -704 -15 -962 -86 -1533 -172 -1387 -610 -2737 -1272 -3922 -595
-1066 -1358 -1989 -2272 -2750 -290 -242 -733 -555 -1073 -759 -1571 -942
-3369 -1336 -5172 -1135 -2360 263 -4574 1617 -6082 3719 -1094 1525 -1762
3340 -1937 5262 -35 381 -44 597 -44 1023 -1 430 10 669 44 1045 166 1823 760
3530 1740 5000 1049 1574 2493 2771 4139 3433 858 345 1755 539 2688 582 239
11 711 3 962 -15z"/>
</g>
</svg>
