<?xml version="1.0" standalone="no"?>
<!DOCTYPE svg PUBLIC "-//W3C//DTD SVG 20010904//EN"
 "http://www.w3.org/TR/2001/REC-SVG-20010904/DTD/svg10.dtd">
<svg version="1.0" xmlns="http://www.w3.org/2000/svg"
 width="2500.000000pt" height="2500.000000pt" viewBox="0 0 2500.000000 2500.000000"
 preserveAspectRatio="xMidYMid meet">

<g transform="translate(0.000000,2500.000000) scale(0.100000,-0.100000)"
fill="#000000" stroke="none">
<path d="M12085 24994 c-900 -44 -1506 -120 -2231 -279 -2011 -441 -3871
-1359 -5429 -2680 -471 -399 -1034 -963 -1440 -1440 -927 -1091 -1680 -2374
-2185 -3720 -835 -2229 -1019 -4621 -534 -6940 172 -822 464 -1735 796 -2490
174 -395 514 -1049 666 -1280 89 -136 290 -337 427 -428 261 -172 539 -257
843 -257 232 0 1044 73 1452 131 360 51 628 292 728 656 l27 98 5 3465 5 3465
22 77 c106 362 365 633 708 741 154 48 164 49 1245 45 l1015 -4 93 -27 c203
-59 360 -154 503 -306 140 -147 225 -303 276 -508 16 -63 18 -314 23 -3484 l5
-3415 140 39 c77 21 254 65 393 97 276 65 367 98 479 172 179 120 302 288 370
505 l28 88 5 4300 5 4300 24 85 c112 401 390 680 791 793 74 21 92 21 1085 25
1075 3 1099 2 1250 -45 354 -112 619 -389 727 -761 l23 -77 5 -3937 5 -3937
464 200 c487 208 555 244 665 348 107 103 198 256 242 411 18 63 19 224 24
4805 5 4440 7 4744 23 4810 56 228 139 385 281 534 149 154 296 243 506 303
74 22 84 22 1080 26 1070 3 1094 2 1245 -45 367 -116 622 -401 722 -808 16
-65 18 -323 23 -3923 l5 -3854 265 199 c1049 784 1844 1466 2625 2247 524 525
917 963 1314 1466 223 283 321 449 395 671 67 202 80 287 81 539 0 197 -3 239
-23 340 -28 136 -82 301 -199 610 -1177 3095 -3518 5579 -6553 6952 -1386 627
-2847 987 -4420 1088 -162 11 -978 21 -1115 14z"/>
<path d="M24840 13203 c-894 -1304 -1946 -2506 -3160 -3609 -2392 -2175 -5420
-3966 -8910 -5272 -1718 -643 -3498 -1154 -5375 -1543 -571 -118 -1403 -266
-1940 -344 -137 -20 -258 -40 -267 -43 -14 -5 20 -34 139 -117 892 -624 1815
-1112 2808 -1485 1721 -646 3571 -900 5420 -745 2615 220 5106 1264 7090 2971
730 629 1433 1396 1987 2169 583 814 1079 1716 1454 2646 516 1280 808 2582
896 3994 24 395 13 1233 -21 1496 l-6 50 -115 -168z"/>
</g>
</svg>
