<?xml version="1.0" standalone="no"?>
<!DOCTYPE svg PUBLIC "-//W3C//DTD SVG 20010904//EN"
 "http://www.w3.org/TR/2001/REC-SVG-20010904/DTD/svg10.dtd">
<svg version="1.0" xmlns="http://www.w3.org/2000/svg"
 width="128.000000pt" height="128.000000pt" viewBox="0 0 128.000000 128.000000"
 preserveAspectRatio="xMidYMid meet">

<g transform="translate(0.000000,128.000000) scale(0.100000,-0.100000)"
fill="#000000" stroke="none">
<path d="M502 1265 c-303 -69 -516 -351 -499 -661 15 -262 190 -489 440 -570
113 -37 267 -39 377 -6 206 64 368 226 432 432 33 110 31 264 -6 377 -63 193
-210 341 -408 410 -91 32 -241 40 -336 18z m77 -517 c42 -92 79 -164 82 -160
3 4 35 80 70 169 l64 163 98 0 c53 0 97 -4 97 -8 0 -5 -13 -21 -30 -37 l-30
-29 0 -206 0 -206 30 -29 c17 -16 30 -32 30 -37 0 -4 -64 -8 -142 -8 l-142 0
37 38 37 38 0 154 c0 87 -4 150 -9 145 -4 -6 -40 -91 -79 -190 -39 -99 -77
-181 -84 -183 -9 -2 -44 65 -98 183 -46 103 -88 189 -92 191 -4 3 -8 -54 -8
-127 l0 -133 40 -47 c22 -26 40 -52 40 -58 0 -7 -37 -11 -106 -11 -117 0 -114
-4 -52 71 l38 45 0 170 0 169 -40 49 c-22 26 -40 50 -40 52 0 3 48 3 107 2
l107 -3 75 -167z"/>
</g>
</svg>
