<svg xmlns="http://www.w3.org/2000/svg" preserveAspectRatio="xMidYMid" version="1.0" viewBox="0 0 1896.179 1895.338"><path d="M892.48.753c-122.3 7.9-241.4 39.4-356.5 94.2-110.8 52.8-210.9 125.9-282.9 206.7-95.4 107.1-160.7 218.9-204.6 351-44.6 133.8-58.5 270.8-41.4 408 23.3 187.7 108 376.7 231.8 517.4 48.3 54.9 111.4 109.1 180.7 155.3 121.5 80.9 266 135.5 408.9 154.3 99.9 13.1 204.5 9.4 302.5-10.7 197.6-40.5 388.1-145.9 510.8-282.6 85.3-95.1 146.8-195 191.2-310.7 55.8-145.6 74.8-296.7 56.4-448.5-9.4-77.4-30.4-158.5-61.6-237.5-7.7-19.6-36.6-78.3-52.3-106.4-51.6-92.4-116-178.6-171.4-229.5-108.5-99.7-223.6-168-360.1-213.7-74.6-24.9-143.2-39.2-221.5-46-21.5-1.9-108.1-2.8-130-1.3zm489.1 571.5c3 .9 7.8 3.2 10.7 5.1 17.8 11.9 25.4 34.6 20.8 62.3-2.2 12.6-157.2 741.9-160.2 753-3.1 12.1-10 26.2-15.8 32.6-2.4 2.8-7.3 6.6-10.8 8.5-6.1 3.3-6.6 3.4-17.8 3.4-12.7 0-19.7-1.9-34-8.9-4.2-2.1-39.5-27.7-89.7-64.9-45.5-33.8-98.3-73-117.3-87.1l-34.5-25.6-6.5 6.4c-3.6 3.5-29.7 28.7-58 56.1-54.6 52.7-62 58.9-77.7 65.5-7.9 3.3-19.1 5.7-20.2 4.4-.4-.5 3.4-53.6 8.5-117.9 5.1-64.4 9.3-118.6 9.3-120.6.1-3.2 1.1-4.4 9.9-12.5 314.8-287.3 433.4-396.2 435.1-399.7 3.5-7.1-.4-10.7-11.8-10.7-6 0-14.2 3.2-22.4 8.8-2.3 1.6-96.7 61.1-209.7 132.2-113 71.1-234.1 147.3-269 169.3-34.9 22-64.2 40-65 39.9-.8 0-41.3-12.3-90-27.2-117.2-35.9-142.2-43.5-150-45.6-26-6.9-36.2-20.8-28.1-38 7.4-15.6 18.4-22.5 63.2-39.7 24.5-9.4 130.7-50.4 196.9-76 95.5-36.9 305.5-117.9 340-131.2 47.7-18.4 138.6-53.5 199-76.8 110-42.5 159.7-61.5 164.6-63.1 11.8-3.8 22.1-4.5 30.5-2z"/></svg>