<?xml version="1.0" standalone="no"?>
<!DOCTYPE svg PUBLIC "-//W3C//DTD SVG 20010904//EN"
 "http://www.w3.org/TR/2001/REC-SVG-20010904/DTD/svg10.dtd">
<svg version="1.0" xmlns="http://www.w3.org/2000/svg"
 width="2834.000000pt" height="2560.000000pt" viewBox="0 0 2834.000000 2560.000000"
 preserveAspectRatio="xMidYMid meet">

<g transform="translate(0.000000,2560.000000) scale(0.100000,-0.100000)"
fill="#000000" stroke="none">
<path d="M2 25528 l3 -73 5283 -6918 5283 -6918 -59 -67 c-205 -233 -10030
-11531 -10036 -11540 -6 -9 489 -12 2163 -12 l2169 0 3918 4475 c2155 2461
3921 4475 3924 4475 3 -1 1544 -2014 3425 -4475 l3420 -4474 4373 0 c3496 -1
4372 2 4366 12 -4 6 -2510 3320 -5567 7362 -3058 4043 -5560 7355 -5560 7360
0 8 6143 7010 9245 10538 l288 327 -2173 0 -2173 0 -3623 -4090 -3623 -4091
-229 303 c-125 167 -1517 2006 -3091 4088 l-2863 3785 -4433 3 -4434 2 4 -72z
m15360 -12645 c4269 -5641 7776 -10274 7791 -10295 l29 -38 -1204 0 -1204 0
-7800 10187 c-4289 5603 -7836 10236 -7882 10295 l-83 108 1295 0 1294 0 7764
-10257z"/>
</g>
</svg>
